# xmcd CD database file
#
# Track frame offsets:
#	150
#	14127
#	26967
#	45500
#	61660
#	73345
#	88517
#	105025
#	115760
#	132545
#	148015
#	161890
#	174200
#	192967
#	205572
#	218905
#	236555
#
# Disc length: 3384 seconds
#
# Revision: 0
# Processed by: cddbd v1.5.1PL0 Copyright (c) Steve Scherf et al.
# Submitted via: CDex 1.50beta10
#
DISCID=ef0d3611
DTITLE=Mark Chesnutt - Hit Disc For Radio Only
DYEAR=1999
DGENRE=Country
TTITLE0=Bubba Shot The Jukebox
TTITLE1=Blame It On Texas
TTITLE2=I'll Think Of Something
TTITLE3=This Heartache Never Sleeps
TTITLE4=Goin' Through The Big D
TTITLE5=I Just Wanted You To Know
TTITLE6=Too Cold At Home
TTITLE7=Old Flames Have New Names
TTITLE8=Gonna Get A Life
TTITLE9=Thank God For Believers
TTITLE10=Brother Jukebox
TTITLE11=It's A Little Too Late
TTITLE12=Almost Goodbye
TTITLE13=Your Love Is A Miracle
TTITLE14=It Sure Is Monday
TTITLE15=I Don't Want To Miss A Thing
TTITLE16=Ol' Country
EXTD=YEAR: 1999
EXTT0=
EXTT1=
EXTT2=
EXTT3=
EXTT4=
EXTT5=
EXTT6=
EXTT7=
EXTT8=
EXTT9=
EXTT10=
EXTT11=
EXTT12=
EXTT13=
EXTT14=
EXTT15=
EXTT16=
PLAYORDER=
